<svg width="118" height="33" id="Layer_1" data-name="Layer 1" xmlns="http://www.w3.org/2000/svg" viewBox="0 0 222.68 99.5">
<rect width="118" height="33" fill="white"/>
<defs><style>.cls-1,.cls-3{fill:#76c045;}.cls-1,.cls-2{fill-rule:evenodd;}.cls-2,.cls-4{fill:#1a7389;}</style></defs><title>jungtalents-logo-final-full</title><path class="cls-1" d="M135.91,3.45l-1.44.22a3.57,3.57,0,0,0-3.46,3l-.22,4.23L107.62,34.08V23.2l2.79-3.12a3.13,3.13,0,0,0,0-4.34l-4.23-5.12h-.12l-4,5a3.54,3.54,0,0,0-.33,4.56l2.9,3.23v7.13l-2.9-2.89-.22-4.35A3.57,3.57,0,0,0,98,20.42l-1.44-.23-5-.55.56,6.79a3.1,3.1,0,0,0,3.12,3l1.34.11,2.89.22,5.13,5.13v9l-4.68-4.68-.22-4.34a3.68,3.68,0,0,0-3.46-3l-1.56-.11-4.9-.56.56,6.68A3.25,3.25,0,0,0,93.48,41H94.7l2.9.23,7,7v2.9h3V38.42L133.13,13l2.78-.22,1.34-.11a3.09,3.09,0,0,0,3.12-3L140.93,3ZM96.6,27.1,95.82,27c-.89-.11-1.45-.56-1.45-1.45L94,22.2l2.57.22.67.11A1.8,1.8,0,0,1,98.94,24l.11,3.34ZM94.7,38.57H94A1.59,1.59,0,0,1,92.48,37l-.23-3.34L94.7,34h.67a1.8,1.8,0,0,1,1.78,1.44l.12,3.34ZM104,18.75a1.71,1.71,0,0,1,.22-2.23l2-2.45,2.11,2.56a1.55,1.55,0,0,1,0,2.12l-2.11,2.45Zm34.3-10a1.43,1.43,0,0,1-1.56,1.45l-.78.11-2.45.22.12-3.34a1.79,1.79,0,0,1,1.67-1.45l.66-.11,2.57-.22Z"/><path class="cls-2" d="M130.06,18.33l-2.48,2.37a22.73,22.73,0,1,1-3.7-5.24l2.41-2.3a25.8,25.8,0,1,0,3.77,5.17Z"/><path class="cls-3" d="M18.05,41.55V52.26a9,9,0,0,1-.46,1.62,5.14,5.14,0,0,1-2,2.18,6.15,6.15,0,0,1-3.11.7,7.07,7.07,0,0,1-2.88-.47,3.8,3.8,0,0,1-1.85-1.72,5.57,5.57,0,0,1-.57-1.5A8.64,8.64,0,0,1,7,51.46a1.55,1.55,0,0,1,.46-1.27,1.72,1.72,0,0,1,1.15-.35,1.42,1.42,0,0,1,1,.35,2.7,2.7,0,0,1,.46,1.27,3.85,3.85,0,0,0,.46,1.38,2.47,2.47,0,0,0,.57.92,2.35,2.35,0,0,0,1.27.35c1.5,0,2.31-1.16,2.31-3.34V41.55a2,2,0,0,1,.46-1.5,1.49,1.49,0,0,1,1.26-.57,1.46,1.46,0,0,1,1.16.57,2,2,0,0,1,.46,1.5Zm3.22,8.06V41.55a2.59,2.59,0,0,1,.46-1.5,1.7,1.7,0,0,1,2.54,0,2.59,2.59,0,0,1,.46,1.5v8.18A12.8,12.8,0,0,0,25,52.15a2.7,2.7,0,0,0,1.15,1.38,4.21,4.21,0,0,0,2.3.58,3.42,3.42,0,0,0,2.77-1A5.18,5.18,0,0,0,32,49.84V41.55a2,2,0,0,1,.46-1.5,1.65,1.65,0,0,1,1.26-.57,1.46,1.46,0,0,1,1.16.57,2,2,0,0,1,.46,1.5v8.06A12.57,12.57,0,0,1,35,52.84a4.28,4.28,0,0,1-1.38,2.3,6,6,0,0,1-2.19,1.27,10.13,10.13,0,0,1-2.77.35,13.57,13.57,0,0,1-3.34-.35A6.34,6.34,0,0,1,23,55.14a5.59,5.59,0,0,1-1.27-2.3,12.79,12.79,0,0,1-.46-3.23Zm21.66-8.06,6.57,9.79V41.43A1.91,1.91,0,0,1,50,39.94a1.45,1.45,0,0,1,1-.46,1.55,1.55,0,0,1,1.16.46,2,2,0,0,1,.46,1.49V54.57c0,1.49-.58,2.19-1.85,2.19a1.63,1.63,0,0,1-.8-.12l-.69-.35a3,3,0,0,1-.58-.69c-.23-.23-.35-.57-.58-.8L41.78,45V54.8a2,2,0,0,1-.46,1.49,1.33,1.33,0,0,1-1.16.47A1.48,1.48,0,0,1,39,56.29a2.58,2.58,0,0,1-.34-1.49V42a4.91,4.91,0,0,1,.11-1.38,1.58,1.58,0,0,1,.69-.81,2,2,0,0,1,1.16-.34,2,2,0,0,1,.8.23c.12,0,.35.23.46.34s.35.35.58.69a5.69,5.69,0,0,1,.46.81Zm28.22,8.18V53c0,.35-.11.7-.11,1a3,3,0,0,1-.46.58,6.67,6.67,0,0,1-.92.69,19,19,0,0,1-2.88,1.15,12.92,12.92,0,0,1-3.11.35,8.43,8.43,0,0,1-3.46-.58,7,7,0,0,1-2.77-1.73,8.09,8.09,0,0,1-1.72-2.76,10.94,10.94,0,0,1-.58-3.57,12.14,12.14,0,0,1,.58-3.58,11.37,11.37,0,0,1,1.72-2.76,11.27,11.27,0,0,1,2.77-1.73,12,12,0,0,1,3.69-.57,11.65,11.65,0,0,1,3,.46A8.46,8.46,0,0,1,69,41.09a5,5,0,0,1,1.27,1.5,3,3,0,0,1,.35,1.26A1.52,1.52,0,0,1,70.12,45a2.06,2.06,0,0,1-1.16.46,1.71,1.71,0,0,1-.69-.23,2,2,0,0,1-.57-.47,5.46,5.46,0,0,0-1-1.49,2.89,2.89,0,0,0-1.15-.81,4.38,4.38,0,0,0-1.84-.34,6.7,6.7,0,0,0-2.19.34A4,4,0,0,0,60,43.74a4.81,4.81,0,0,0-1,1.84A8.18,8.18,0,0,0,58.6,48,6.7,6.7,0,0,0,60,52.61a4.61,4.61,0,0,0,3.69,1.61,7.44,7.44,0,0,0,2.3-.34A8.21,8.21,0,0,0,68,53V50.3H65.39A2,2,0,0,1,64,50a.92.92,0,0,1-.57-.92,1,1,0,0,1,.46-.92,1.39,1.39,0,0,1,1-.35h3.92a3.39,3.39,0,0,1,1.15.12c.35,0,.58.23.81.57A1.86,1.86,0,0,1,71.15,49.73Z"/><path class="cls-4" d="M121.73,61.71H89.93a2.86,2.86,0,0,0-2.88,2.88v.34a1.21,1.21,0,0,0,.12.58l5.3,25a3,3,0,0,0,3,2.88h21.43a2.88,2.88,0,0,0,0-5.76H97.77v-.12a3.61,3.61,0,0,1-3.12-3.57,3.65,3.65,0,0,1,3.46-3.57h21.31a2.88,2.88,0,0,0,2.88-3,2.84,2.84,0,0,0-2.88-2.88H95.23A3.58,3.58,0,0,1,92.35,71a3.47,3.47,0,0,1,3.46-3.46h25.92a3,3,0,0,0,3-3A3,3,0,0,0,121.73,61.71Z"/><path class="cls-4" d="M33.83,65.74a2.38,2.38,0,0,0,.8-2,2.8,2.8,0,0,0-.8-2.07A4.07,4.07,0,0,0,31.18,61H9.75a4.11,4.11,0,0,0-2.53.69,2.45,2.45,0,0,0-.81,2.07,2.36,2.36,0,0,0,.81,2,3.33,3.33,0,0,0,2.53.81h7.37V90.74a4.75,4.75,0,0,0,.93,3.11,3.31,3.31,0,0,0,2.42,1,3,3,0,0,0,2.41-1,4.17,4.17,0,0,0,.93-3.11V66.55h7.37A3.65,3.65,0,0,0,33.83,65.74Z"/><path class="cls-4" d="M59.63,88.44,51.11,66.78c-.12-.46-.46-1.15-.92-2.31a19.57,19.57,0,0,0-1-2.18,5.61,5.61,0,0,0-1.5-1.39,5.23,5.23,0,0,0-2.3-.46h-.12a4.9,4.9,0,0,0-2.3.46,4.35,4.35,0,0,0-1.5,1.39,20.5,20.5,0,0,0-1.15,2.18c-.35,1.16-.69,1.85-.81,2.31L31,88.44a17.78,17.78,0,0,0-.81,2A6,6,0,0,0,30,91.78,2.91,2.91,0,0,0,31,94a3.44,3.44,0,0,0,2.3.92A2.56,2.56,0,0,0,35.33,94a15.06,15.06,0,0,0,1.61-3.35l1.61-4.26H52l1.61,4.26A11.27,11.27,0,0,0,55.26,94a2.38,2.38,0,0,0,2.07.92,3.44,3.44,0,0,0,2.3-.92,3.05,3.05,0,0,0,1-2.19,3.83,3.83,0,0,0-.35-1.39C60.21,90.05,60,89.36,59.63,88.44ZM45.35,81.29H40.28l4.95-13.82h.12L50.3,81.29Z"/><path class="cls-4" d="M87.74,89.59a3.33,3.33,0,0,0-2.53-.81H71.61V64.47a4.23,4.23,0,0,0-1-3.11,3.33,3.33,0,0,0-2.42-.92,3,3,0,0,0-2.42,1,4.18,4.18,0,0,0-.92,3V90.16A3.55,3.55,0,0,0,69,94.31H85.21a3.33,3.33,0,0,0,2.53-.81,2.54,2.54,0,0,0,0-3.91Z"/><path class="cls-4" d="M154.21,60.44a2.59,2.59,0,0,0-2.19.92,4.34,4.34,0,0,0-.8,2.88V84.06l-13-19.59-1-1.72a11.78,11.78,0,0,0-1-1.27,4,4,0,0,0-1.16-.81,2.91,2.91,0,0,0-1.49-.23,4.7,4.7,0,0,0-2.19.58,3.3,3.3,0,0,0-1.38,1.73,7.38,7.38,0,0,0-.35,2.53V91a4.27,4.27,0,0,0,.81,2.88,3.06,3.06,0,0,0,4.6,0,4.08,4.08,0,0,0,.81-2.88V71.5l12.67,19.36c.35.57.81,1,1.16,1.61a6,6,0,0,0,1.15,1.27,2.84,2.84,0,0,0,1.38.8,3.69,3.69,0,0,0,1.61.35c2.42,0,3.69-1.5,3.69-4.38V64.24a4.35,4.35,0,0,0-.92-2.88A2.69,2.69,0,0,0,154.21,60.44Z"/><path class="cls-4" d="M185.43,61H163.89a4.11,4.11,0,0,0-2.53.69,2.45,2.45,0,0,0-.81,2.07,2.36,2.36,0,0,0,.81,2,3.33,3.33,0,0,0,2.53.81h7.37V90.74a4.23,4.23,0,0,0,1,3.11,3,3,0,0,0,2.42,1,3.33,3.33,0,0,0,2.42-1,4.8,4.8,0,0,0,.92-3.11V66.55h7.37a3.35,3.35,0,0,0,2.54-.81,2.47,2.47,0,0,0,.92-2,2.92,2.92,0,0,0-.92-2.07A3.93,3.93,0,0,0,185.43,61Z"/><path class="cls-4" d="M216,80a7.4,7.4,0,0,0-2.53-2.88,13.66,13.66,0,0,0-3.92-2,38.81,38.81,0,0,0-5.07-1.38c-1.5-.47-2.53-.7-3.22-.93s-1.27-.46-2-.8a8,8,0,0,1-1.5-1.27,2.75,2.75,0,0,1-.46-1.73,3.25,3.25,0,0,1,1.61-2.76,7.39,7.39,0,0,1,4.15-1.15,6.92,6.92,0,0,1,4.15,1,12.77,12.77,0,0,1,2.18,3A5.21,5.21,0,0,0,210.66,71a2.13,2.13,0,0,0,1.73.58,2.57,2.57,0,0,0,2.19-.93,3.25,3.25,0,0,0,.81-2.18,6.07,6.07,0,0,0-.7-2.65,7.58,7.58,0,0,0-2.18-2.65,10.46,10.46,0,0,0-3.69-2.08,18,18,0,0,0-5.3-.69,17,17,0,0,0-6.68,1.15,9.79,9.79,0,0,0-4.38,3.23,9,9,0,0,0-1.5,5,7.25,7.25,0,0,0,1.5,4.73,8.46,8.46,0,0,0,3.8,3.11,28.61,28.61,0,0,0,6,2c1.85.46,3.23.8,4.26,1.15a6,6,0,0,1,2.65,1.61,3.61,3.61,0,0,1,1,2.65,4.59,4.59,0,0,1-1.84,3.57,8.17,8.17,0,0,1-5,1.38,7.34,7.34,0,0,1-3.45-.69,4.69,4.69,0,0,1-2.08-1.84,7.33,7.33,0,0,1-1.38-2.65,6.26,6.26,0,0,0-1.26-2,3.1,3.1,0,0,0-4,.12,3,3,0,0,0-.8,2.19,7.78,7.78,0,0,0,1.38,4.26A11.19,11.19,0,0,0,195.46,93a19,19,0,0,0,15.32.46,10.42,10.42,0,0,0,4.49-3.8,9.89,9.89,0,0,0,1.61-5.41A9.26,9.26,0,0,0,216,80Z"/><path class="cls-4" d="M112.46,42.3a.41.41,0,0,0-.42.41v4.21A1.11,1.11,0,0,1,110.93,48a1.08,1.08,0,0,1-1.06-1.09v-.81a.39.39,0,0,0-.39-.38h0a.39.39,0,0,0-.39.38v.73A1.91,1.91,0,0,0,111,48.78a1.89,1.89,0,0,0,1.92-1.89V42.71a.41.41,0,0,0-.42-.41Z"/><path class="cls-4" d="M119.06,42.23h-4.78a.43.43,0,1,0,0,.85h2v5.28a.43.43,0,0,0,.85,0V43.08h2a.43.43,0,1,0,0-.85Z"/></svg>